<svg width="113" height="29" viewBox="0 0 113 29" fill="none" xmlns="http://www.w3.org/2000/svg">
<path d="M0 22.5297V5.2414H6.16234C7.50736 5.2414 8.62165 5.48621 9.5052 5.97582C10.3887 6.46543 11.05 7.13513 11.489 7.98491C11.9279 8.82907 12.1474 9.78015 12.1474 10.8382C12.1474 11.9018 11.9251 12.8585 11.4805 13.7083C11.0416 14.5524 10.3775 15.2221 9.48831 15.7174C8.60476 16.207 7.49329 16.4518 6.1539 16.4518H1.91623V14.2401H5.91753C6.76732 14.2401 7.45671 14.0938 7.98572 13.8011C8.51472 13.5029 8.90303 13.0977 9.15065 12.5856C9.39827 12.0734 9.52208 11.491 9.52208 10.8382C9.52208 10.1853 9.39827 9.60569 9.15065 9.0992C8.90303 8.5927 8.51191 8.19595 7.97727 7.90894C7.44827 7.62192 6.75043 7.47842 5.88377 7.47842H2.60844V22.5297H0Z" fill="white"/>
<path d="M19.7154 22.7914C18.4379 22.7914 17.3377 22.5185 16.4148 21.9726C15.4975 21.4211 14.7884 20.6473 14.2875 19.6511C13.7923 18.6494 13.5447 17.476 13.5447 16.131C13.5447 14.8029 13.7923 13.6323 14.2875 12.6193C14.7884 11.6063 15.4862 10.8156 16.381 10.2472C17.2814 9.67885 18.3338 9.39465 19.5382 9.39465C20.2698 9.39465 20.9789 9.51565 21.6654 9.75764C22.352 9.99963 22.9682 10.3795 23.5141 10.8972C24.06 11.415 24.4905 12.0875 24.8057 12.9148C25.1208 13.7364 25.2784 14.7353 25.2784 15.9115V16.8063H14.9713V14.9154H22.805C22.805 14.2514 22.67 13.6633 22.3998 13.1511C22.1297 12.6334 21.7498 12.2254 21.2602 11.9271C20.7763 11.6288 20.2079 11.4797 19.555 11.4797C18.8459 11.4797 18.2269 11.6542 17.6979 12.0031C17.1745 12.3464 16.7693 12.7966 16.4823 13.3537C16.2009 13.9053 16.0602 14.5046 16.0602 15.1518V16.6291C16.0602 17.4957 16.2122 18.233 16.5161 18.8408C16.8256 19.4485 17.2561 19.9128 17.8076 20.2336C18.3592 20.5488 19.0035 20.7063 19.7408 20.7063C20.2191 20.7063 20.6553 20.6388 21.0492 20.5037C21.4431 20.3631 21.7836 20.1548 22.0706 19.8791C22.3576 19.6033 22.5771 19.2628 22.7291 18.8576L25.118 19.2882C24.9267 19.9916 24.5834 20.6079 24.0882 21.1369C23.5985 21.6602 22.9823 22.0682 22.2395 22.3609C21.5022 22.6479 20.6609 22.7914 19.7154 22.7914Z" fill="white"/>
<path d="M27.3658 22.5297V9.56348H29.8054V11.6232H29.9404C30.1768 10.9254 30.5933 10.3767 31.1898 9.97712C31.792 9.57192 32.4729 9.36933 33.2326 9.36933C33.3902 9.36933 33.5759 9.37495 33.7898 9.38621C34.0093 9.39746 34.1809 9.41153 34.3047 9.42842V11.8427C34.2034 11.8146 34.0233 11.7836 33.7645 11.7498C33.5056 11.7105 33.2467 11.6908 32.9878 11.6908C32.3913 11.6908 31.8595 11.8174 31.3924 12.0706C30.9309 12.3182 30.5651 12.6643 30.295 13.1089C30.0249 13.5479 29.8898 14.0488 29.8898 14.6115V22.5297H27.3658Z" fill="white"/>
<path d="M43.9895 17.1524V9.56348H46.5219V22.5297H44.0401V20.2843H43.9051C43.6068 20.9765 43.1284 21.5533 42.47 22.0148C41.8172 22.4706 41.004 22.6985 40.0304 22.6985C39.1975 22.6985 38.4603 22.5156 37.8187 22.1498C37.1828 21.7784 36.6819 21.2297 36.3161 20.5037C35.9559 19.7778 35.7758 18.8801 35.7758 17.8109V9.56348H38.2999V17.507C38.2999 18.3905 38.5447 19.094 39.0343 19.6174C39.5239 20.1408 40.1598 20.4024 40.9421 20.4024C41.4148 20.4024 41.8847 20.2843 42.3518 20.0479C42.8245 19.8115 43.2157 19.4542 43.5252 18.9758C43.8403 18.4975 43.9951 17.8897 43.9895 17.1524Z" fill="white"/>
<path d="M49.2002 22.5297V9.56348H51.6229V11.6739H51.7833C52.0534 10.9592 52.4952 10.402 53.1086 10.0024C53.7221 9.59725 54.4565 9.39465 55.3119 9.39465C56.1785 9.39465 56.9045 9.59725 57.4898 10.0024C58.0807 10.4076 58.5169 10.9648 58.7982 11.6739H58.9333C59.2428 10.9817 59.7353 10.4301 60.4106 10.0193C61.0859 9.60288 61.8907 9.39465 62.8249 9.39465C64.0011 9.39465 64.9606 9.76327 65.7034 10.5005C66.4519 11.2377 66.8262 12.3492 66.8262 13.8349V22.5297H64.3021V14.0713C64.3021 13.1934 64.063 12.5574 63.5846 12.1635C63.1063 11.7695 62.535 11.5726 61.871 11.5726C61.0493 11.5726 60.4106 11.8258 59.9547 12.3323C59.4989 12.8332 59.271 13.4776 59.271 14.2654V22.5297H56.7554V13.9109C56.7554 13.2074 56.5359 12.6418 56.0969 12.2141C55.658 11.7864 55.0868 11.5726 54.3833 11.5726C53.905 11.5726 53.4632 11.6992 53.058 11.9524C52.6584 12.2001 52.3348 12.5462 52.0872 12.9908C51.8452 13.4353 51.7242 13.9503 51.7242 14.5356V22.5297H49.2002Z" fill="white"/>
<path d="M72.02 14.831V22.5297H69.496V9.56348H71.9187V11.6739H72.0791C72.3774 10.9873 72.8445 10.4358 73.4804 10.0193C74.122 9.60288 74.9295 9.39465 75.9031 9.39465C76.7867 9.39465 77.5605 9.58037 78.2246 9.95179C78.8886 10.3176 79.4036 10.8635 79.7694 11.5895C80.1352 12.3154 80.3181 13.213 80.3181 14.2823V22.5297H77.794V14.5862C77.794 13.6464 77.5492 12.912 77.0596 12.383C76.57 11.8483 75.8975 11.581 75.0421 11.581C74.4568 11.581 73.9362 11.7076 73.4804 11.9609C73.0302 12.2141 72.6728 12.5856 72.4083 13.0752C72.1494 13.5592 72.02 14.1444 72.02 14.831Z" fill="white"/>
<path d="M86.7634 22.8167C85.9417 22.8167 85.1989 22.6648 84.5348 22.3609C83.8707 22.0514 83.3445 21.604 82.9562 21.0187C82.5735 20.4334 82.3822 19.7159 82.3822 18.8661C82.3822 18.1345 82.5229 17.5323 82.8043 17.0596C83.0857 16.5869 83.4655 16.2126 83.9439 15.9369C84.4222 15.6611 84.9569 15.4529 85.5478 15.3122C86.1387 15.1715 86.7409 15.0646 87.3543 14.9914C88.1309 14.9014 88.7612 14.8282 89.2452 14.7719C89.7292 14.71 90.0809 14.6115 90.3004 14.4765C90.5199 14.3414 90.6296 14.1219 90.6296 13.818V13.7589C90.6296 13.0217 90.4214 12.4505 90.0049 12.0453C89.5941 11.6401 88.9807 11.4375 88.1647 11.4375C87.3149 11.4375 86.6452 11.626 86.1556 12.0031C85.6716 12.3745 85.3367 12.7882 85.151 13.244L82.7789 12.7037C83.0603 11.9159 83.4712 11.2799 84.0114 10.7959C84.5573 10.3063 85.1848 9.95179 85.8939 9.73231C86.603 9.50721 87.3486 9.39465 88.1309 9.39465C88.6486 9.39465 89.1973 9.45656 89.777 9.58037C90.3623 9.69855 90.9082 9.91803 91.4147 10.2388C91.9268 10.5596 92.346 11.0182 92.6725 11.6148C92.9989 12.2057 93.1621 12.9739 93.1621 13.9193V22.5297H90.6971V20.757H90.5958C90.4326 21.0834 90.1878 21.4042 89.8614 21.7193C89.535 22.0345 89.1157 22.2962 88.6036 22.5044C88.0915 22.7126 87.4781 22.8167 86.7634 22.8167ZM87.3121 20.7908C88.0099 20.7908 88.6064 20.6529 89.1017 20.3771C89.6025 20.1014 89.9824 19.7412 90.2413 19.2966C90.5058 18.8464 90.638 18.3652 90.638 17.8531V16.1817C90.548 16.2717 90.3735 16.3561 90.1147 16.4349C89.8614 16.5081 89.5716 16.5728 89.2452 16.6291C88.9188 16.6797 88.6008 16.7276 88.2913 16.7726C87.9818 16.812 87.7229 16.8457 87.5147 16.8739C87.025 16.9358 86.5777 17.0399 86.1725 17.1862C85.7729 17.3325 85.4521 17.5436 85.2101 17.8193C84.9737 18.0895 84.8556 18.4496 84.8556 18.8998C84.8556 19.5245 85.0863 19.9973 85.5478 20.318C86.0092 20.6332 86.5973 20.7908 87.3121 20.7908Z" fill="white"/>
<path d="M105.527 12.7291L103.239 13.1343C103.144 12.8416 102.992 12.563 102.784 12.2985C102.581 12.034 102.305 11.8174 101.956 11.6485C101.607 11.4797 101.171 11.3953 100.648 11.3953C99.9331 11.3953 99.3365 11.5557 98.8582 11.8765C98.3798 12.1916 98.1406 12.5996 98.1406 13.1005C98.1406 13.5338 98.301 13.8827 98.6218 14.1472C98.9426 14.4118 99.4603 14.6284 100.175 14.7972L102.235 15.27C103.428 15.5457 104.317 15.9706 104.902 16.5447C105.488 17.1187 105.78 17.8643 105.78 18.7817C105.78 19.5583 105.555 20.2505 105.105 20.8583C104.66 21.4605 104.038 21.9332 103.239 22.2765C102.446 22.6198 101.526 22.7914 100.479 22.7914C99.027 22.7914 97.8424 22.4819 96.9251 21.8628C96.0077 21.2382 95.445 20.3518 95.2367 19.2037L97.6764 18.8323C97.8283 19.4682 98.1406 19.9494 98.6134 20.2758C99.0861 20.5966 99.7023 20.757 100.462 20.757C101.289 20.757 101.951 20.5853 102.446 20.2421C102.941 19.8931 103.189 19.4682 103.189 18.9674C103.189 18.5622 103.037 18.2217 102.733 17.946C102.435 17.6702 101.976 17.462 101.357 17.3213L99.1621 16.8401C97.9521 16.5643 97.0573 16.1254 96.4777 15.5232C95.9036 14.9211 95.6166 14.1585 95.6166 13.2356C95.6166 12.4702 95.8305 11.8005 96.2582 11.2265C96.6859 10.6524 97.2768 10.205 98.0309 9.88426C98.785 9.55785 99.6489 9.39465 100.622 9.39465C102.024 9.39465 103.127 9.69855 103.932 10.3063C104.736 10.9085 105.268 11.7161 105.527 12.7291Z" fill="white"/>
<path d="M91.9382 8.64972V7.164L101.595 1.22115L111.253 7.164V27.2211H90.4525" stroke="white" stroke-width="2.08"/>
</svg>
