<svg width="121" height="31" viewBox="0 0 121 31" fill="none" xmlns="http://www.w3.org/2000/svg">
<path d="M0 24.9551V6.3369H6.63636C8.08485 6.3369 9.28485 6.60053 10.2364 7.12781C11.1879 7.65508 11.9 8.37629 12.3727 9.29144C12.8455 10.2005 13.0818 11.2248 13.0818 12.3642C13.0818 13.5096 12.8424 14.5399 12.3636 15.4551C11.8909 16.3642 11.1758 17.0854 10.2182 17.6187C9.26667 18.146 8.0697 18.4096 6.62727 18.4096H2.06364V16.0278H6.37273C7.28788 16.0278 8.0303 15.8702 8.6 15.5551C9.1697 15.2339 9.58788 14.7975 9.85455 14.246C10.1212 13.6945 10.2545 13.0672 10.2545 12.3642C10.2545 11.6611 10.1212 11.0369 9.85455 10.4914C9.58788 9.94599 9.16667 9.51872 8.59091 9.20963C8.02121 8.90053 7.2697 8.74599 6.33636 8.74599H2.80909V24.9551H0Z" fill="black"/>
<path d="M21.232 25.2369C19.8562 25.2369 18.6714 24.943 17.6775 24.3551C16.6896 23.7611 15.9259 22.9278 15.3865 21.8551C14.8532 20.7763 14.5865 19.5127 14.5865 18.0642C14.5865 16.6339 14.8532 15.3733 15.3865 14.2824C15.9259 13.1914 16.6775 12.3399 17.6411 11.7278C18.6108 11.1157 19.7441 10.8096 21.0411 10.8096C21.829 10.8096 22.5926 10.9399 23.332 11.2005C24.0714 11.4611 24.735 11.8702 25.3229 12.4278C25.9108 12.9854 26.3744 13.7096 26.7138 14.6005C27.0532 15.4854 27.2229 16.5611 27.2229 17.8278V18.7914H16.1229V16.7551H24.5593C24.5593 16.0399 24.4138 15.4066 24.1229 14.8551C23.832 14.2975 23.4229 13.8581 22.8956 13.5369C22.3744 13.2157 21.7623 13.0551 21.0593 13.0551C20.2956 13.0551 19.629 13.243 19.0593 13.6187C18.4956 13.9884 18.0593 14.4733 17.7502 15.0733C17.4472 15.6672 17.2956 16.3127 17.2956 17.0096V18.6005C17.2956 19.5339 17.4593 20.3278 17.7865 20.9824C18.1199 21.6369 18.5835 22.1369 19.1775 22.4824C19.7714 22.8217 20.4653 22.9914 21.2593 22.9914C21.7744 22.9914 22.2441 22.9187 22.6684 22.7733C23.0926 22.6217 23.4593 22.3975 23.7684 22.1005C24.0775 21.8036 24.3138 21.4369 24.4775 21.0005L27.0502 21.4642C26.8441 22.2217 26.4744 22.8854 25.9411 23.4551C25.4138 24.0187 24.7502 24.4581 23.9502 24.7733C23.1562 25.0824 22.2502 25.2369 21.232 25.2369Z" fill="black"/>
<path d="M29.4708 24.9551V10.9914H32.0981V13.2096H32.2435C32.4981 12.4581 32.9466 11.8672 33.589 11.4369C34.2375 11.0005 34.9708 10.7824 35.789 10.7824C35.9587 10.7824 36.1587 10.7884 36.389 10.8005C36.6254 10.8127 36.8102 10.8278 36.9435 10.846V13.446C36.8345 13.4157 36.6405 13.3824 36.3617 13.346C36.0829 13.3036 35.8042 13.2824 35.5254 13.2824C34.8829 13.2824 34.3102 13.4187 33.8072 13.6914C33.3102 13.9581 32.9163 14.3308 32.6254 14.8096C32.3345 15.2824 32.189 15.8217 32.189 16.4278V24.9551H29.4708Z" fill="black"/>
<path d="M47.3733 19.1642V10.9914H50.1005V24.9551H47.4278V22.5369H47.2824C46.9612 23.2824 46.446 23.9036 45.7369 24.4005C45.0339 24.8914 44.1581 25.1369 43.1096 25.1369C42.2127 25.1369 41.4187 24.9399 40.7278 24.546C40.043 24.146 39.5036 23.5551 39.1096 22.7733C38.7218 21.9914 38.5278 21.0248 38.5278 19.8733V10.9914H41.246V19.546C41.246 20.4975 41.5096 21.2551 42.0369 21.8187C42.5642 22.3824 43.249 22.6642 44.0915 22.6642C44.6005 22.6642 45.1066 22.5369 45.6096 22.2824C46.1187 22.0278 46.5399 21.643 46.8733 21.1278C47.2127 20.6127 47.3793 19.9581 47.3733 19.1642Z" fill="black"/>
<path d="M52.9848 24.9551V10.9914H55.5939V13.2642H55.7666C56.0575 12.4945 56.5333 11.8945 57.1939 11.4642C57.8545 11.0278 58.6454 10.8096 59.5666 10.8096C60.5 10.8096 61.2818 11.0278 61.9121 11.4642C62.5485 11.9005 63.0182 12.5005 63.3212 13.2642H63.4666C63.8 12.5187 64.3303 11.9248 65.0575 11.4824C65.7848 11.0339 66.6515 10.8096 67.6575 10.8096C68.9242 10.8096 69.9575 11.2066 70.7575 12.0005C71.5636 12.7945 71.9666 13.9914 71.9666 15.5914V24.9551H69.2485V15.846C69.2485 14.9005 68.9909 14.2157 68.4757 13.7914C67.9606 13.3672 67.3454 13.1551 66.6303 13.1551C65.7454 13.1551 65.0575 13.4278 64.5666 13.9733C64.0757 14.5127 63.8303 15.2066 63.8303 16.0551V24.9551H61.1212V15.6733C61.1212 14.9157 60.8848 14.3066 60.4121 13.846C59.9394 13.3854 59.3242 13.1551 58.5666 13.1551C58.0515 13.1551 57.5757 13.2914 57.1394 13.5642C56.7091 13.8308 56.3606 14.2036 56.0939 14.6824C55.8333 15.1611 55.703 15.7157 55.703 16.346V24.9551H52.9848Z" fill="black"/>
<path d="M77.56 16.6642V24.9551H74.8418V10.9914H77.4509V13.2642H77.6236C77.9449 12.5248 78.4479 11.9308 79.1327 11.4824C79.8236 11.0339 80.6933 10.8096 81.7418 10.8096C82.6933 10.8096 83.5267 11.0096 84.2418 11.4096C84.957 11.8036 85.5115 12.3914 85.9055 13.1733C86.2994 13.9551 86.4964 14.9217 86.4964 16.0733V24.9551H83.7782V16.4005C83.7782 15.3884 83.5145 14.5975 82.9873 14.0278C82.46 13.452 81.7358 13.1642 80.8146 13.1642C80.1842 13.1642 79.6236 13.3005 79.1327 13.5733C78.6479 13.846 78.263 14.246 77.9782 14.7733C77.6994 15.2945 77.56 15.9248 77.56 16.6642Z" fill="black"/>
<path d="M93.4375 25.2642C92.5526 25.2642 91.7526 25.1005 91.0375 24.7733C90.3223 24.4399 89.7556 23.9581 89.3375 23.3278C88.9253 22.6975 88.7193 21.9248 88.7193 21.0096C88.7193 20.2217 88.8708 19.5733 89.1738 19.0642C89.4769 18.5551 89.8859 18.152 90.4011 17.8551C90.9162 17.5581 91.492 17.3339 92.1284 17.1824C92.7647 17.0308 93.4132 16.9157 94.0738 16.8369C94.9102 16.7399 95.589 16.6611 96.1102 16.6005C96.6314 16.5339 97.0102 16.4278 97.2466 16.2824C97.4829 16.1369 97.6011 15.9005 97.6011 15.5733V15.5096C97.6011 14.7157 97.3769 14.1005 96.9284 13.6642C96.4859 13.2278 95.8253 13.0096 94.9465 13.0096C94.0314 13.0096 93.3102 13.2127 92.7829 13.6187C92.2617 14.0187 91.9011 14.4642 91.7011 14.9551L89.1465 14.3733C89.4496 13.5248 89.892 12.8399 90.4738 12.3187C91.0617 11.7914 91.7375 11.4096 92.5011 11.1733C93.2647 10.9308 94.0678 10.8096 94.9102 10.8096C95.4678 10.8096 96.0587 10.8763 96.6829 11.0096C97.3132 11.1369 97.9011 11.3733 98.4465 11.7187C98.9981 12.0642 99.4496 12.5581 99.8011 13.2005C100.153 13.8369 100.328 14.6642 100.328 15.6824V24.9551H97.6738V23.046H97.5647C97.389 23.3975 97.1253 23.743 96.7738 24.0824C96.4223 24.4217 95.9708 24.7036 95.4193 24.9278C94.8678 25.1521 94.2072 25.2642 93.4375 25.2642ZM94.0284 23.0824C94.7799 23.0824 95.4223 22.9339 95.9556 22.6369C96.495 22.3399 96.9041 21.952 97.1829 21.4733C97.4678 20.9884 97.6102 20.4702 97.6102 19.9187V18.1187C97.5132 18.2157 97.3253 18.3066 97.0465 18.3914C96.7738 18.4702 96.4617 18.5399 96.1102 18.6005C95.7587 18.6551 95.4162 18.7066 95.0829 18.7551C94.7496 18.7975 94.4708 18.8339 94.2466 18.8642C93.7193 18.9308 93.2375 19.043 92.8011 19.2005C92.3708 19.3581 92.0253 19.5854 91.7647 19.8824C91.5102 20.1733 91.3829 20.5611 91.3829 21.046C91.3829 21.7187 91.6314 22.2278 92.1284 22.5733C92.6253 22.9127 93.2587 23.0824 94.0284 23.0824Z" fill="black"/>
<path d="M113.644 14.4005L111.181 14.8369C111.078 14.5217 110.914 14.2217 110.69 13.9369C110.472 13.652 110.175 13.4187 109.799 13.2369C109.423 13.0551 108.954 12.9642 108.39 12.9642C107.62 12.9642 106.978 13.1369 106.463 13.4824C105.947 13.8217 105.69 14.2611 105.69 14.8005C105.69 15.2672 105.863 15.643 106.208 15.9278C106.554 16.2127 107.111 16.446 107.881 16.6278L110.099 17.1369C111.384 17.4339 112.341 17.8914 112.972 18.5096C113.602 19.1278 113.917 19.9308 113.917 20.9187C113.917 21.7551 113.675 22.5005 113.19 23.1551C112.711 23.8036 112.041 24.3127 111.181 24.6824C110.326 25.052 109.335 25.2369 108.208 25.2369C106.644 25.2369 105.369 24.9036 104.381 24.2369C103.393 23.5642 102.787 22.6096 102.563 21.3733L105.19 20.9733C105.354 21.6581 105.69 22.1763 106.199 22.5278C106.708 22.8733 107.372 23.046 108.19 23.046C109.081 23.046 109.793 22.8611 110.326 22.4914C110.86 22.1157 111.126 21.6581 111.126 21.1187C111.126 20.6824 110.963 20.3157 110.635 20.0187C110.314 19.7217 109.82 19.4975 109.154 19.346L106.79 18.8278C105.487 18.5308 104.523 18.0581 103.899 17.4096C103.281 16.7611 102.972 15.9399 102.972 14.946C102.972 14.1217 103.202 13.4005 103.663 12.7824C104.123 12.1642 104.76 11.6824 105.572 11.3369C106.384 10.9854 107.314 10.8096 108.363 10.8096C109.872 10.8096 111.06 11.1369 111.926 11.7914C112.793 12.4399 113.366 13.3096 113.644 14.4005Z" fill="black"/>
<path d="M99.0104 9.31508V7.71508L109.41 1.31508L119.81 7.71508V29.3151H97.4104" stroke="black" stroke-width="2.24"/>
</svg>
